<?xml version="1.0" encoding="UTF-8"?>
<svg xmlns="http://www.w3.org/2000/svg" xmlns:xlink="http://www.w3.org/1999/xlink" width="199pt" height="83pt" viewBox="0 0 199 83" version="1.1">
<g id="surface1">
<path style=" stroke:none;fill-rule:evenodd;fill:rgb(25.098039%,25.098039%,25.098039%);fill-opacity:1;" d="M 194.523438 19.152344 C 194.523438 10.960938 187.878906 4.308594 179.6875 4.308594 L 19.140625 4.308594 C 10.953125 4.308594 4.308594 10.960938 4.308594 19.152344 L 4.308594 63.683594 C 4.308594 71.875 10.953125 78.527344 19.140625 78.527344 L 179.6875 78.527344 C 187.878906 78.527344 194.523438 71.875 194.523438 63.683594 Z M 194.523438 19.152344 "/>
<path style=" stroke:none;fill-rule:evenodd;fill:rgb(100%,100%,100%);fill-opacity:1;" d="M 198.832031 19.152344 C 198.832031 8.582031 190.253906 0 179.6875 0 L 19.140625 0 C 8.578125 0 0 8.582031 0 19.152344 L 0 63.683594 C 0 74.253906 8.578125 82.839844 19.140625 82.839844 C 19.140625 82.839844 179.6875 82.839844 179.6875 82.839844 C 190.253906 82.839844 198.832031 74.253906 198.832031 63.683594 Z M 194.523438 19.152344 C 194.523438 10.960938 187.878906 4.308594 179.6875 4.308594 L 19.140625 4.308594 C 10.953125 4.308594 4.308594 10.960938 4.308594 19.152344 L 4.308594 63.683594 C 4.308594 71.875 10.953125 78.527344 19.140625 78.527344 L 179.6875 78.527344 C 187.878906 78.527344 194.523438 71.875 194.523438 63.683594 Z M 194.523438 19.152344 "/>
<path style="fill:none;stroke-width:24.55;stroke-linecap:round;stroke-linejoin:round;stroke:rgb(100%,29.411765%,84.705882%);stroke-opacity:1;stroke-miterlimit:1.5;" d="M 3206.986737 741.999963 L 3153.999892 886.004201 L 3228.994053 886.004201 L 3206.004872 995.992954 L 3325.013665 820.406727 L 3256.012265 820.406727 L 3288.007517 741.999963 Z M 3206.986737 741.999963 " transform="matrix(0.115374,0,0,0.146073,-229.384306,-85.519103)"/>
<path style=" stroke:none;fill-rule:nonzero;fill:rgb(80%,80%,80%);fill-opacity:1;" d="M 30.617188 57.335938 C 28.082031 57.335938 26.121094 56.621094 24.828125 55.136719 C 23.535156 53.699219 22.867188 51.640625 22.867188 48.910156 L 22.867188 46.996094 L 27.84375 46.996094 L 27.84375 49.292969 C 27.84375 51.449219 28.75 52.550781 30.570312 52.550781 C 31.476562 52.550781 32.148438 52.3125 32.625 51.738281 C 33.058594 51.257812 33.296875 50.394531 33.296875 49.199219 C 33.296875 47.8125 32.960938 46.566406 32.339844 45.464844 C 31.71875 44.410156 30.523438 43.117188 28.800781 41.636719 C 26.644531 39.71875 25.113281 37.996094 24.253906 36.417969 C 23.390625 34.882812 22.960938 33.160156 22.960938 31.199219 C 22.960938 28.566406 23.632812 26.507812 24.972656 25.023438 C 26.3125 23.585938 28.273438 22.867188 30.808594 22.867188 C 33.34375 22.867188 35.257812 23.585938 36.550781 25.023438 C 37.84375 26.507812 38.464844 28.566406 38.464844 31.292969 L 38.464844 32.683594 L 33.488281 32.683594 L 33.488281 30.957031 C 33.488281 29.808594 33.25 28.949219 32.816406 28.421875 C 32.386719 27.941406 31.71875 27.65625 30.855469 27.65625 C 29.085938 27.65625 28.226562 28.707031 28.226562 30.863281 C 28.226562 32.058594 28.558594 33.210938 29.230469 34.261719 C 29.851562 35.316406 31.046875 36.609375 32.769531 38.09375 C 34.972656 40.007812 36.503906 41.730469 37.316406 43.3125 C 38.128906 44.890625 38.558594 46.710938 38.558594 48.816406 C 38.558594 51.546875 37.890625 53.652344 36.550781 55.136719 C 35.164062 56.621094 33.199219 57.335938 30.617188 57.335938 Z M 30.617188 57.335938 "/>
<path style=" stroke:none;fill-rule:nonzero;fill:rgb(80%,80%,80%);fill-opacity:1;" d="M 41.574219 23.347656 L 49.613281 23.347656 C 52.242188 23.347656 54.207031 24.066406 55.496094 25.453125 C 56.789062 26.839844 57.460938 28.898438 57.460938 31.628906 L 57.460938 48.578125 C 57.460938 51.304688 56.789062 53.363281 55.496094 54.753906 C 54.207031 56.140625 52.242188 56.859375 49.613281 56.859375 L 41.574219 56.859375 Z M 49.515625 52.070312 C 50.378906 52.070312 51.046875 51.832031 51.527344 51.304688 C 51.957031 50.777344 52.195312 49.964844 52.195312 48.816406 L 52.195312 31.390625 C 52.195312 30.242188 51.957031 29.425781 51.527344 28.898438 C 51.046875 28.375 50.378906 28.132812 49.515625 28.132812 L 46.835938 28.132812 L 46.835938 52.070312 Z M 49.515625 52.070312 "/>
<path style=" stroke:none;fill-rule:nonzero;fill:rgb(80%,80%,80%);fill-opacity:1;" d="M 61 23.347656 L 75.355469 23.347656 L 75.355469 28.132812 L 66.261719 28.132812 L 66.261719 36.992188 L 73.488281 36.992188 L 73.488281 41.777344 L 66.261719 41.777344 L 66.261719 52.070312 L 75.355469 52.070312 L 75.355469 56.859375 L 61 56.859375 Z M 61 23.347656 "/>
<path style=" stroke:none;fill-rule:nonzero;fill:rgb(80%,80%,80%);fill-opacity:1;" d="M 78.367188 23.347656 L 83.632812 23.347656 L 83.632812 52.070312 L 92.292969 52.070312 L 92.292969 56.859375 L 78.367188 56.859375 Z M 78.367188 23.347656 "/>
<path style=" stroke:none;fill-rule:nonzero;fill:rgb(80%,80%,80%);fill-opacity:1;" d="M 110.136719 59.972656 C 107.746094 59.972656 106.261719 58.917969 105.738281 56.761719 C 104.730469 57.144531 103.582031 57.335938 102.242188 57.335938 C 99.660156 57.335938 97.699219 56.621094 96.3125 55.136719 C 94.921875 53.652344 94.253906 51.59375 94.253906 48.910156 L 94.253906 31.292969 C 94.253906 28.613281 94.921875 26.554688 96.3125 25.070312 C 97.699219 23.585938 99.660156 22.867188 102.242188 22.867188 C 104.828125 22.867188 106.789062 23.585938 108.175781 25.070312 C 109.5625 26.554688 110.234375 28.613281 110.234375 31.292969 L 110.234375 48.910156 C 110.234375 51.160156 109.753906 52.980469 108.75 54.417969 C 108.941406 54.753906 109.179688 54.945312 109.46875 55.039062 C 109.753906 55.136719 110.1875 55.183594 110.710938 55.183594 L 111.527344 55.183594 L 111.527344 59.972656 Z M 102.242188 52.550781 C 104.0625 52.550781 104.972656 51.449219 104.972656 49.246094 L 104.972656 30.957031 C 104.972656 28.757812 104.0625 27.65625 102.242188 27.65625 C 100.425781 27.65625 99.515625 28.757812 99.515625 30.957031 L 99.515625 49.246094 C 99.515625 51.449219 100.425781 52.550781 102.242188 52.550781 Z M 102.242188 52.550781 "/>
<path style=" stroke:none;fill-rule:nonzero;fill:rgb(80%,80%,80%);fill-opacity:1;" d="M 121.429688 57.335938 C 118.894531 57.335938 116.933594 56.621094 115.59375 55.136719 C 114.253906 53.699219 113.582031 51.640625 113.582031 48.910156 L 113.582031 23.347656 L 118.847656 23.347656 L 118.847656 49.292969 C 118.847656 50.445312 119.085938 51.257812 119.5625 51.785156 C 119.996094 52.3125 120.664062 52.550781 121.527344 52.550781 C 122.386719 52.550781 123.058594 52.3125 123.535156 51.785156 C 123.964844 51.257812 124.207031 50.445312 124.207031 49.292969 L 124.207031 23.347656 L 129.277344 23.347656 L 129.277344 48.910156 C 129.277344 51.640625 128.605469 53.699219 127.269531 55.136719 C 125.929688 56.621094 123.964844 57.335938 121.429688 57.335938 Z M 121.429688 57.335938 "/>
<path style=" stroke:none;fill-rule:nonzero;fill:rgb(80%,80%,80%);fill-opacity:1;" d="M 159.460938 23.347656 L 166.0625 23.347656 L 171.183594 43.40625 L 171.277344 43.40625 L 171.277344 23.347656 L 175.964844 23.347656 L 175.964844 56.859375 L 170.558594 56.859375 L 164.246094 32.394531 L 164.148438 32.394531 L 164.148438 56.859375 L 159.460938 56.859375 Z M 159.460938 23.347656 "/>
<path style=" stroke:none;fill-rule:evenodd;fill:rgb(65.098039%,65.098039%,65.098039%);fill-opacity:1;" d="M 12.601562 14.902344 L 18.757812 14.902344 C 18.570312 16.4375 17.261719 17.628906 15.679688 17.628906 C 14.09375 17.628906 12.785156 16.4375 12.601562 14.902344 Z M 12.601562 14.148438 C 12.785156 12.613281 14.09375 11.421875 15.679688 11.421875 C 17.261719 11.421875 18.570312 12.613281 18.757812 14.148438 Z M 12.601562 14.148438 "/>
<path style=" stroke:none;fill-rule:evenodd;fill:rgb(65.098039%,65.098039%,65.098039%);fill-opacity:1;" d="M 12.601562 68.6875 L 18.757812 68.6875 C 18.570312 70.226562 17.261719 71.417969 15.679688 71.417969 C 14.09375 71.417969 12.785156 70.226562 12.601562 68.6875 Z M 12.601562 67.9375 C 12.785156 66.402344 14.09375 65.210938 15.679688 65.210938 C 17.261719 65.210938 18.570312 66.402344 18.757812 67.9375 Z M 12.601562 67.9375 "/>
<path style=" stroke:none;fill-rule:evenodd;fill:rgb(65.098039%,65.098039%,65.098039%);fill-opacity:1;" d="M 180.074219 68.6875 L 186.230469 68.6875 C 186.046875 70.226562 184.738281 71.417969 183.152344 71.417969 C 181.570312 71.417969 180.261719 70.226562 180.074219 68.6875 Z M 180.074219 67.9375 C 180.261719 66.402344 181.570312 65.210938 183.152344 65.210938 C 184.738281 65.210938 186.046875 66.402344 186.230469 67.9375 Z M 180.074219 67.9375 "/>
<path style=" stroke:none;fill-rule:evenodd;fill:rgb(65.098039%,65.098039%,65.098039%);fill-opacity:1;" d="M 180.074219 14.902344 L 186.230469 14.902344 C 186.046875 16.4375 184.738281 17.628906 183.152344 17.628906 C 181.570312 17.628906 180.261719 16.4375 180.074219 14.902344 Z M 180.074219 14.148438 C 180.261719 12.613281 181.570312 11.421875 183.152344 11.421875 C 184.738281 11.421875 186.046875 12.613281 186.230469 14.148438 Z M 180.074219 14.148438 "/>
</g>
</svg>
